<svg width="226" height="127" viewBox="0 0 226 127" fill="none" xmlns="http://www.w3.org/2000/svg">
<path fill-rule="evenodd" clip-rule="evenodd" d="M65.4712 35.4092C68.7083 35.4092 71.3317 38.0299 71.3317 41.2657C71.3317 44.4976 68.7083 47.121 65.4712 47.121C62.2287 47.121 59.6053 44.4976 59.6053 41.2657C59.6053 38.0299 62.2287 35.4092 65.4712 35.4092Z" fill="#26C462"/>
<mask id="mask0_2_268" style="mask-type:luminance" maskUnits="userSpaceOnUse" x="16" y="44" width="58" height="51">
<path d="M16.7004 44.704H73.1519V94.0475H16.7004V44.704Z" fill="white"/>
</mask>
<g mask="url(#mask0_2_268)">
<path fill-rule="evenodd" clip-rule="evenodd" d="M66.8469 65.114C70.0946 70.7919 69.7189 75.6007 67.1578 79.8923L66.8469 80.4783C66.413 81.2456 65.9513 81.9507 65.471 82.599C64.2579 84.2156 62.8874 85.479 61.3965 86.4262C61.1081 86.61 60.8183 86.782 60.5247 86.9395C60.1198 87.1564 59.715 87.3496 59.2996 87.5255C47.2717 92.5857 29.5935 80.5908 25.4568 68.0972C30.8477 77.7134 38.506 84.5939 50.1966 86.5942C53.6296 73.9907 52.398 63.1508 38.2626 57.1699C30.3674 54.3798 23.8203 50.6532 20.2366 44.8813C13.8627 57.6673 16.3776 70.4546 25.5825 83.2432C35.1882 93.6585 52.4152 96.8309 63.2459 91.4876C63.5343 91.3461 63.8121 91.2006 64.0899 91.0471C64.5635 90.7865 65.0252 90.5074 65.471 90.2097C67.0308 89.1686 68.4066 87.9065 69.5403 86.4262C70.0139 85.8084 70.4412 85.1535 70.8222 84.4616C71.7483 82.7961 72.3992 80.9083 72.7352 78.7903C73.2432 75.561 73.0077 71.796 71.8224 67.486V67.4767C71.2376 65.7768 70.2164 64.0199 68.9212 62.2009C68.609 62.6216 68.3034 63.0463 68.0018 63.4736L67.978 63.5146L67.9502 63.5516C67.5573 64.0675 67.1869 64.5901 66.8456 65.114H66.8469Z" fill="#26C462"/>
</g>
<path fill-rule="evenodd" clip-rule="evenodd" d="M76.9977 48.2746L77.0162 48.2468L77.0175 48.2455C77.0784 48.1542 77.1392 48.0642 77.2001 47.9729L76.9977 48.2746Z" fill="#26C462"/>
<mask id="mask1_2_268" style="mask-type:luminance" maskUnits="userSpaceOnUse" x="47" y="32" width="18" height="38">
<path d="M47.752 32.8335H64.008V69.7653H47.752V32.8335Z" fill="white"/>
</mask>
<g mask="url(#mask1_2_268)">
<path fill-rule="evenodd" clip-rule="evenodd" d="M63.9285 55.9924C58.1606 49.2416 51.3873 41.6375 50.4454 32.8387C46.2716 42.5701 47.0759 53.4101 55.9117 60.0273C54.5186 63.2632 55.143 66.4977 56.1723 69.7336C56.6538 63.1282 60.2323 58.8711 63.9285 55.9924Z" fill="#26C462"/>
</g>
<mask id="mask2_2_268" style="mask-type:luminance" maskUnits="userSpaceOnUse" x="57" y="32" width="26" height="53">
<path d="M57.912 32.8335H82.9733V84.6667H57.912V32.8335Z" fill="white"/>
</mask>
<g mask="url(#mask2_2_268)">
<path fill-rule="evenodd" clip-rule="evenodd" d="M69.4677 57.748C70.1464 58.3737 70.7655 59.0854 71.3238 59.8831C71.3145 59.8898 71.3053 59.8964 71.296 59.903C72.7115 61.6863 73.6137 64.0874 74.1165 66.966C74.3652 67.8841 74.5848 68.8089 74.7634 69.7389C75.7926 66.5004 76.417 63.2658 75.024 60.0273C83.8597 53.4101 84.6641 42.5701 80.4916 32.8374C79.5497 41.6375 72.7816 49.2416 67.0084 55.9924C66.4819 56.605 65.9673 57.2109 65.4712 57.8075C64.7767 58.6356 64.1073 59.4492 63.4776 60.2496C62.9629 60.9097 62.4721 61.5593 62.0157 62.2009C60.7206 64.0186 59.698 65.7754 59.1146 67.4767C57.5826 73.0581 57.6342 77.7187 58.8368 81.497C59.1715 82.55 59.6001 83.5342 60.1081 84.4524C61.5818 83.517 62.9338 82.2127 64.0901 80.477C63.9856 80.2838 63.8758 80.0907 63.7712 79.8923C63.6151 79.6264 63.4709 79.3631 63.3267 79.0959C61.1889 75.008 61.0447 70.4427 64.0954 65.1126C64.4936 64.4115 64.95 63.6958 65.4712 62.9682C65.6604 62.6917 65.8641 62.4139 66.0718 62.1374C66.511 61.5077 66.9727 60.8819 67.4595 60.2496C67.9384 59.6225 68.4425 58.9941 68.961 58.3618C69.1291 58.1567 69.2971 57.953 69.4664 57.748H69.4677Z" fill="#FFB906"/>
</g>
<path fill-rule="evenodd" clip-rule="evenodd" d="M75.1866 50.7775C75.1536 50.8199 75.1218 50.8635 75.0887 50.9058L75.1866 50.7775Z" fill="#26C462"/>
<path fill-rule="evenodd" clip-rule="evenodd" d="M75.3864 50.5143C75.3546 50.5579 75.3215 50.6002 75.2898 50.6426L75.3864 50.5143Z" fill="#26C462"/>
<path fill-rule="evenodd" clip-rule="evenodd" d="M75.5888 50.2444C75.5557 50.2907 75.5213 50.337 75.4869 50.382C75.5213 50.3357 75.5544 50.2907 75.5888 50.2444Z" fill="#26C462"/>
<path fill-rule="evenodd" clip-rule="evenodd" d="M76.3653 49.1821C76.3322 49.2284 76.2992 49.276 76.2648 49.3223C76.2992 49.276 76.3322 49.2297 76.3653 49.1821Z" fill="#26C462"/>
<path fill-rule="evenodd" clip-rule="evenodd" d="M76.5625 48.9043C76.5281 48.9545 76.4924 49.0035 76.4567 49.0538C76.4924 49.0048 76.5281 48.9545 76.5625 48.9043Z" fill="#26C462"/>
<path fill-rule="evenodd" clip-rule="evenodd" d="M77.56 47.4266C77.523 47.4821 77.4872 47.539 77.4502 47.5946C77.4872 47.539 77.523 47.4835 77.56 47.4266Z" fill="#26C462"/>
<path fill-rule="evenodd" clip-rule="evenodd" d="M78.74 45.4726C78.7109 45.5229 78.6832 45.5732 78.6541 45.6234C78.6832 45.5732 78.7123 45.5229 78.74 45.4726Z" fill="#26C462"/>
<path fill-rule="evenodd" clip-rule="evenodd" d="M79.2044 44.6127C79.1779 44.6643 79.1501 44.7159 79.1237 44.7675C79.1501 44.7159 79.1766 44.6643 79.2044 44.6127Z" fill="#26C462"/>
<path fill-rule="evenodd" clip-rule="evenodd" d="M80.1715 42.5582C80.149 42.6125 80.1265 42.6667 80.1027 42.7196C80.1265 42.6654 80.149 42.6125 80.1715 42.5582Z" fill="#26C462"/>
<path fill-rule="evenodd" clip-rule="evenodd" d="M80.4201 41.9457C80.3963 42.0052 80.3738 42.0634 80.3513 42.1217C80.3738 42.0634 80.3963 42.0039 80.4201 41.9457Z" fill="#26C462"/>
<path fill-rule="evenodd" clip-rule="evenodd" d="M80.7191 44.2039C80.7257 44.1444 80.731 44.0849 80.7363 44.0253C80.731 44.0849 80.7244 44.1444 80.7191 44.2039Z" fill="#26C462"/>
<path fill-rule="evenodd" clip-rule="evenodd" d="M80.5392 45.5824C80.5511 45.511 80.563 45.4409 80.5736 45.3694C80.5617 45.4409 80.5498 45.511 80.5392 45.5824Z" fill="#26C462"/>
<path fill-rule="evenodd" clip-rule="evenodd" d="M80.2072 47.1977C80.2217 47.1368 80.2376 47.0773 80.2508 47.0164C80.2376 47.076 80.2217 47.1368 80.2072 47.1977Z" fill="#26C462"/>
<path fill-rule="evenodd" clip-rule="evenodd" d="M80.1277 47.5059C80.1422 47.4504 80.1568 47.3961 80.1713 47.3406C80.1568 47.3948 80.1422 47.4504 80.1277 47.5059Z" fill="#26C462"/>
<path fill-rule="evenodd" clip-rule="evenodd" d="M80.0457 47.8036C80.0589 47.7573 80.0734 47.7097 80.0853 47.6634C80.0734 47.711 80.0602 47.7573 80.0457 47.8036Z" fill="#26C462"/>
<path fill-rule="evenodd" clip-rule="evenodd" d="M79.7428 48.7865C79.7626 48.731 79.7812 48.6754 79.7997 48.6198C79.7812 48.6754 79.7613 48.731 79.7428 48.7865Z" fill="#26C462"/>
<path fill-rule="evenodd" clip-rule="evenodd" d="M79.6316 49.1093C79.6528 49.0511 79.6726 48.9929 79.6938 48.9347C79.6739 48.9929 79.6528 49.0511 79.6316 49.1093Z" fill="#26C462"/>
<path fill-rule="evenodd" clip-rule="evenodd" d="M79.4054 49.7179C79.4252 49.6649 79.4464 49.6133 79.4662 49.5604C79.4464 49.612 79.4252 49.6649 79.4054 49.7179Z" fill="#26C462"/>
<path fill-rule="evenodd" clip-rule="evenodd" d="M79.0138 50.6492C79.0376 50.5949 79.0627 50.5407 79.0879 50.4851C79.0627 50.5394 79.0376 50.5949 79.0138 50.6492Z" fill="#26C462"/>
<path fill-rule="evenodd" clip-rule="evenodd" d="M78.7373 51.2379C78.7611 51.1889 78.7849 51.1413 78.8087 51.091C78.7849 51.1413 78.7611 51.1903 78.7373 51.2379Z" fill="#26C462"/>
<path fill-rule="evenodd" clip-rule="evenodd" d="M77.9316 52.7315C77.9621 52.6799 77.9938 52.627 78.0242 52.5754C77.9925 52.627 77.9621 52.6799 77.9316 52.7315Z" fill="#26C462"/>
<path fill-rule="evenodd" clip-rule="evenodd" d="M77.2161 53.8559C77.2452 53.8123 77.2756 53.7699 77.3034 53.7263C77.2743 53.7699 77.2452 53.8123 77.2161 53.8559Z" fill="#26C462"/>
<path fill-rule="evenodd" clip-rule="evenodd" d="M76.8073 54.4354C76.843 54.3864 76.88 54.3361 76.9157 54.2872C76.88 54.3375 76.843 54.3864 76.8073 54.4354Z" fill="#26C462"/>
<path fill-rule="evenodd" clip-rule="evenodd" d="M76.3958 54.9831C76.4315 54.9368 76.4685 54.8891 76.5042 54.8428C76.4685 54.8891 76.4328 54.9368 76.3958 54.9831Z" fill="#26C462"/>
<path fill-rule="evenodd" clip-rule="evenodd" d="M76.1827 55.2529C76.2198 55.2066 76.2555 55.1616 76.2925 55.1167C76.2568 55.1616 76.2198 55.2066 76.1827 55.2529Z" fill="#26C462"/>
<path fill-rule="evenodd" clip-rule="evenodd" d="M75.2687 56.3271C75.3097 56.2822 75.352 56.2359 75.393 56.1909C75.352 56.2359 75.311 56.2822 75.2687 56.3271Z" fill="#26C462"/>
<path fill-rule="evenodd" clip-rule="evenodd" d="M72.6454 58.8433C72.6943 58.801 72.7446 58.76 72.7936 58.7177C72.7446 58.76 72.6957 58.801 72.6454 58.8433Z" fill="#26C462"/>
<mask id="mask3_2_268" style="mask-type:luminance" maskUnits="userSpaceOnUse" x="67" y="44" width="48" height="51">
<path d="M67.3947 44.704H114.236V94.0475H67.3947V44.704Z" fill="white"/>
</mask>
<g mask="url(#mask3_2_268)">
<path fill-rule="evenodd" clip-rule="evenodd" d="M92.673 57.1699C78.5323 63.1508 77.3073 73.9907 80.7403 86.5942C92.4309 84.5939 100.088 77.7134 105.48 68.0972C101.342 80.5842 83.6758 92.5764 71.6492 87.5321C71.1055 88.273 70.493 88.9887 69.8117 89.6766C69.1529 90.3367 68.4477 90.9426 67.7069 91.4969C78.5429 96.8283 95.7541 93.6493 105.353 83.2432C114.561 70.4546 117.074 57.666 110.699 44.8813C107.117 50.6532 100.568 54.3785 92.673 57.1699Z" fill="#FFB906"/>
</g>
<path d="M130.236 43.41H135.427L137.312 49.761L139.226 43.41H144.417L140.937 53.241L142.416 57.446L146.853 43.41H153.001L145.229 64H140.328L137.312 56.634L134.325 64H129.424L121.652 43.41H127.771L132.237 57.446L133.658 53.241L130.236 43.41ZM159.45 64.29C158.116 64.29 156.927 64.087 155.883 63.681C154.839 63.2557 153.959 62.6853 153.244 61.97C152.548 61.2547 152.016 60.433 151.649 59.505C151.282 58.577 151.098 57.6007 151.098 56.576C151.098 55.1067 151.417 53.763 152.055 52.545C152.693 51.3077 153.631 50.3217 154.868 49.587C156.105 48.833 157.633 48.456 159.45 48.456C161.267 48.456 162.795 48.8233 164.032 49.558C165.269 50.2927 166.207 51.2593 166.845 52.458C167.483 53.6567 167.802 54.9617 167.802 56.373C167.802 56.663 167.783 56.9627 167.744 57.272C167.725 57.562 167.696 57.823 167.657 58.055H156.956C156.995 58.5963 157.14 59.041 157.391 59.389C157.662 59.7177 157.99 59.9593 158.377 60.114C158.783 60.2687 159.199 60.346 159.624 60.346C160.223 60.346 160.784 60.2107 161.306 59.94C161.847 59.6693 162.205 59.2923 162.379 58.809L167.048 60.143C166.642 60.955 166.072 61.6703 165.337 62.289C164.622 62.9077 163.771 63.4007 162.785 63.768C161.799 64.116 160.687 64.29 159.45 64.29ZM156.84 54.749H161.886C161.828 54.2463 161.683 53.821 161.451 53.473C161.238 53.125 160.948 52.8543 160.581 52.661C160.233 52.4677 159.827 52.371 159.363 52.371C158.899 52.371 158.483 52.4677 158.116 52.661C157.768 52.8543 157.478 53.125 157.246 53.473C157.033 53.821 156.898 54.2463 156.84 54.749ZM169.611 64V48.746H175.121V64H169.611ZM169.611 47.47V42.83H175.121V47.47H169.611ZM183.767 64C182.781 64 181.872 63.8067 181.041 63.42C180.229 63.0333 179.533 62.492 178.953 61.796C178.373 61.1 177.918 60.288 177.59 59.36C177.28 58.432 177.126 57.4267 177.126 56.344C177.126 55.2033 177.3 54.1593 177.648 53.212C177.996 52.2453 178.479 51.4043 179.098 50.689C179.736 49.9737 180.49 49.4227 181.36 49.036C182.23 48.6493 183.187 48.456 184.231 48.456C185.313 48.456 186.27 48.6783 187.102 49.123C187.952 49.5483 188.619 50.1767 189.103 51.008V48.746H193.888V62.608C193.888 64.1933 193.501 65.5757 192.728 66.755C191.954 67.9343 190.872 68.843 189.48 69.481C188.088 70.1383 186.464 70.467 184.608 70.467C183.003 70.467 181.592 70.2157 180.374 69.713C179.175 69.2103 178.112 68.4853 177.184 67.538L180.084 64.522C180.644 65.044 181.311 65.479 182.085 65.827C182.877 66.1943 183.718 66.378 184.608 66.378C185.284 66.378 185.903 66.2523 186.464 66.001C187.044 65.7497 187.508 65.3437 187.856 64.783C188.204 64.2417 188.378 63.5167 188.378 62.608V61.622C187.952 62.4147 187.314 63.014 186.464 63.42C185.632 63.8067 184.733 64 183.767 64ZM185.739 59.65C186.009 59.65 186.261 59.621 186.493 59.563C186.744 59.4857 186.976 59.389 187.189 59.273C187.401 59.1377 187.604 58.9733 187.798 58.78C188.01 58.5673 188.204 58.3353 188.378 58.084V55.358C188.204 54.894 187.962 54.4977 187.653 54.169C187.343 53.821 187.005 53.56 186.638 53.386C186.27 53.1927 185.893 53.096 185.507 53.096C185.12 53.096 184.753 53.183 184.405 53.357C184.076 53.531 183.786 53.7823 183.535 54.111C183.283 54.4203 183.09 54.778 182.955 55.184C182.819 55.59 182.752 56.025 182.752 56.489C182.752 56.953 182.819 57.3783 182.955 57.765C183.109 58.1517 183.322 58.49 183.593 58.78C183.863 59.0507 184.182 59.2633 184.55 59.418C184.917 59.5727 185.313 59.65 185.739 59.65ZM212.026 64H206.516V55.416C206.516 54.662 206.342 54.1207 205.994 53.792C205.665 53.444 205.25 53.27 204.747 53.27C204.515 53.27 204.225 53.357 203.877 53.531C203.548 53.705 203.229 53.9563 202.92 54.285C202.611 54.6137 202.369 55.0003 202.195 55.445V64H196.685V42.83H202.195V51.008C202.736 50.1767 203.442 49.5483 204.312 49.123C205.201 48.6783 206.178 48.456 207.241 48.456C208.324 48.456 209.184 48.6397 209.822 49.007C210.46 49.355 210.934 49.8093 211.243 50.37C211.552 50.9307 211.755 51.53 211.852 52.168C211.968 52.806 212.026 53.4053 212.026 53.966V64ZM225.398 63.159C224.895 63.3717 224.354 63.5747 223.774 63.768C223.213 63.942 222.633 64.0773 222.034 64.174C221.454 64.2707 220.883 64.319 220.323 64.319C219.491 64.319 218.728 64.1837 218.032 63.913C217.336 63.623 216.775 63.159 216.35 62.521C215.944 61.8637 215.741 60.984 215.741 59.882V52.893H213.856V48.746H215.741V43.961H221.251V48.746H224.238V52.893H221.251V57.939C221.251 58.4417 221.357 58.7993 221.57 59.012C221.782 59.2053 222.072 59.302 222.44 59.302C222.71 59.302 223.02 59.2537 223.368 59.157C223.716 59.0603 224.064 58.9443 224.412 58.809L225.398 63.159Z" fill="black" fill-opacity="0.65"/>
<path d="M139.02 72.78H134.3V85H132.04V72.78H127.3V70.8H139.02V72.78ZM143.235 85.2C142.408 85.2 141.668 85.06 141.015 84.78C140.362 84.4867 139.795 84.0867 139.315 83.58C138.848 83.0733 138.488 82.5 138.235 81.86C137.982 81.2067 137.855 80.5133 137.855 79.78C137.855 79.0467 137.982 78.3533 138.235 77.7C138.488 77.0467 138.848 76.4733 139.315 75.98C139.795 75.4733 140.362 75.08 141.015 74.8C141.682 74.5067 142.422 74.36 143.235 74.36C144.048 74.36 144.782 74.5067 145.435 74.8C146.102 75.08 146.668 75.4733 147.135 75.98C147.615 76.4733 147.982 77.0467 148.235 77.7C148.488 78.3533 148.615 79.0467 148.615 79.78C148.615 80.5133 148.488 81.2067 148.235 81.86C147.982 82.5 147.615 83.0733 147.135 83.58C146.668 84.0867 146.102 84.4867 145.435 84.78C144.782 85.06 144.048 85.2 143.235 85.2ZM140.115 79.8C140.115 80.4667 140.255 81.0667 140.535 81.6C140.815 82.1333 141.188 82.5533 141.655 82.86C142.122 83.1667 142.648 83.32 143.235 83.32C143.808 83.32 144.328 83.1667 144.795 82.86C145.275 82.54 145.655 82.1133 145.935 81.58C146.215 81.0333 146.355 80.4333 146.355 79.78C146.355 79.1133 146.215 78.5133 145.935 77.98C145.655 77.4467 145.275 77.0267 144.795 76.72C144.328 76.4 143.808 76.24 143.235 76.24C142.648 76.24 142.122 76.4 141.655 76.72C141.188 77.04 140.815 77.4667 140.535 78C140.255 78.52 140.115 79.12 140.115 79.8ZM161.588 85.1C160.654 85.1 159.781 84.9067 158.968 84.52C158.154 84.1333 157.441 83.6 156.827 82.92C156.228 82.24 155.754 81.4667 155.408 80.6C155.074 79.7333 154.908 78.8133 154.908 77.84C154.908 76.8667 155.074 75.9533 155.408 75.1C155.754 74.2467 156.228 73.4867 156.827 72.82C157.441 72.1533 158.154 71.6333 158.968 71.26C159.794 70.8867 160.694 70.7 161.668 70.7C163.014 70.7 164.148 70.9867 165.068 71.56C166.001 72.12 166.701 72.8667 167.168 73.8L165.448 75.04C165.074 74.2667 164.541 73.6867 163.848 73.3C163.168 72.9133 162.421 72.72 161.608 72.72C160.941 72.72 160.334 72.86 159.788 73.14C159.241 73.42 158.768 73.8067 158.368 74.3C157.981 74.78 157.688 75.3333 157.488 75.96C157.288 76.5733 157.188 77.22 157.188 77.9C157.188 78.62 157.301 79.2933 157.528 79.92C157.754 80.5467 158.074 81.1 158.488 81.58C158.901 82.0467 159.388 82.4133 159.948 82.68C160.508 82.9467 161.114 83.08 161.768 83.08C162.541 83.08 163.274 82.8867 163.968 82.5C164.674 82.1 165.334 81.5067 165.947 80.72V83C164.708 84.4 163.254 85.1 161.588 85.1ZM165.728 79.48H162.748V77.82H167.608V85H165.728V79.48ZM174.583 85.2C173.756 85.2 173.016 85.06 172.363 84.78C171.709 84.4867 171.143 84.0867 170.663 83.58C170.196 83.0733 169.836 82.5 169.583 81.86C169.329 81.2067 169.203 80.5133 169.203 79.78C169.203 79.0467 169.329 78.3533 169.583 77.7C169.836 77.0467 170.196 76.4733 170.663 75.98C171.143 75.4733 171.709 75.08 172.363 74.8C173.029 74.5067 173.769 74.36 174.583 74.36C175.396 74.36 176.129 74.5067 176.783 74.8C177.449 75.08 178.016 75.4733 178.483 75.98C178.963 76.4733 179.329 77.0467 179.582 77.7C179.836 78.3533 179.963 79.0467 179.963 79.78C179.963 80.5133 179.836 81.2067 179.582 81.86C179.329 82.5 178.963 83.0733 178.483 83.58C178.016 84.0867 177.449 84.4867 176.783 84.78C176.129 85.06 175.396 85.2 174.583 85.2ZM171.463 79.8C171.463 80.4667 171.603 81.0667 171.883 81.6C172.163 82.1333 172.536 82.5533 173.003 82.86C173.469 83.1667 173.996 83.32 174.583 83.32C175.156 83.32 175.676 83.1667 176.143 82.86C176.623 82.54 177.003 82.1133 177.283 81.58C177.563 81.0333 177.703 80.4333 177.703 79.78C177.703 79.1133 177.563 78.5133 177.283 77.98C177.003 77.4467 176.623 77.0267 176.143 76.72C175.676 76.4 175.156 76.24 174.583 76.24C173.996 76.24 173.469 76.4 173.003 76.72C172.536 77.04 172.163 77.4667 171.883 78C171.603 78.52 171.463 79.12 171.463 79.8Z" fill="black" fill-opacity="0.65"/>
</svg>
